<svg xmlns="http://www.w3.org/2000/svg" version="1.1" xmlns:xlink="http://www.w3.org/1999/xlink" xmlns:svgjs="http://svgjs.dev/svgjs" width="1000" height="1000" viewBox="0 0 1000 1000"><rect width="1000" height="1000" fill="#444444"></rect><g transform="matrix(0.7,0,0,0.7,149.84897959183667,150.19913061224486)"><svg viewBox="0 0 343 343" data-background-color="#444444" preserveAspectRatio="xMidYMid meet" height="999" width="1000" xmlns="http://www.w3.org/2000/svg" xmlns:xlink="http://www.w3.org/1999/xlink"><g id="tight-bounds" transform="matrix(1,0,0,1,0.0740000000000407,0.07400000000001228)"><svg viewBox="0 0 342.85155851775386 342.85155851775386" height="342.85155851775386" width="342.85155851775386"><g><svg></svg></g><g><svg viewBox="0 0 342.85155851775386 342.85155851775386" height="342.85155851775386" width="342.85155851775386"><g><path d="M0 171.426c0-94.676 76.75-171.426 171.426-171.426 94.676 0 171.426 76.75 171.426 171.426 0 94.676-76.75 171.426-171.426 171.426-94.676 0-171.426-76.75-171.426-171.426zM171.426 340.63c93.449 0 169.204-75.755 169.204-169.204 0-93.449-75.755-169.204-169.204-169.204-93.449 0-169.204 75.755-169.204 169.204 0 93.449 75.755 169.204 169.204 169.204z" data-fill-palette-color="tertiary" fill="#ffffff" stroke="transparent"></path><ellipse rx="164.56874808852186" ry="164.56874808852186" cx="171.42577925887693" cy="171.42577925887693" fill="#ffffff" stroke="transparent" stroke-width="0" fill-opacity="1" data-fill-palette-color="tertiary"></ellipse></g><g transform="matrix(1,0,0,1,64.84655864529837,114.11893787413516)"><svg viewBox="0 0 213.1584412271571 114.61368276948355" height="114.61368276948355" width="213.1584412271571"><g><svg viewBox="0 0 213.1584412271571 114.61368276948355" height="114.61368276948355" width="213.1584412271571"><g><svg viewBox="0 0 213.1584412271571 114.61368276948355" height="114.61368276948355" width="213.1584412271571"><g transform="matrix(1,0,0,1,0,68.93863448175958)"><svg viewBox="0 0 213.1584412271571 45.67504828772396" height="45.67504828772396" width="213.1584412271571"><g><svg viewBox="0 0 213.1584412271571 45.67504828772396" height="45.67504828772396" width="213.1584412271571"><g><svg viewBox="0 0 213.1584412271571 24.63493852880031" height="24.63493852880031" width="213.1584412271571"><g transform="matrix(1,0,0,1,0,0)"><svg width="213.1584412271571" viewBox="2.200000047683716 -35.650001525878906 402.3299865722656 46.5" height="24.63493852880031" data-palette-color="#444444"><path d="M13 0L2.2 0 2.2-35 13-35 13-21.9 23.45-21.9 23.45-35 34.25-35 34.25 0 23.45 0 23.45-13.45 13-13.45 13 0ZM47.6 0L36.4 0 47.6-30.6Q48.55-33.1 50.72-34.38 52.9-35.65 55.65-35.65L55.65-35.65Q58.4-35.65 60.57-34.4 62.75-33.15 63.7-30.65L63.7-30.65 74.9 0 63.45 0 61.55-6.1 49.6-6.1 47.6 0ZM55.3-25.6L51.85-14.35 59.3-14.35 56.05-25.6Q56-25.75 55.9-25.83 55.8-25.9 55.65-25.9L55.65-25.9Q55.55-25.9 55.45-25.83 55.35-25.75 55.3-25.6L55.3-25.6ZM103 0.65L103 0.65Q99.8 0.65 96.97-0.65 94.15-1.95 92.4-4.5 90.65-7.05 90.65-10.75L90.65-10.75 90.65-24.3Q90.65-24.95 90.37-25.43 90.1-25.9 89.65-26.15 89.2-26.4 88.6-26.4L88.6-26.4Q88-26.4 87.52-26.15 87.05-25.9 86.77-25.43 86.5-24.95 86.5-24.3L86.5-24.3 86.5 0 76.2 0 76.2-24.2Q76.2-27.85 77.92-30.4 79.65-32.95 82.5-34.3 85.35-35.65 88.6-35.65L88.6-35.65Q91.85-35.65 94.65-34.3 97.45-32.95 99.2-30.4 100.95-27.85 100.95-24.2L100.95-24.2 100.95-10.65Q100.95-10 101.25-9.53 101.55-9.05 102-8.8 102.45-8.55 102.95-8.55L102.95-8.55Q103.5-8.55 104-8.8 104.5-9.05 104.8-9.53 105.1-10 105.1-10.65L105.1-10.65 105.1-24.2Q105.1-27.85 106.85-30.4 108.6-32.95 111.42-34.3 114.25-35.65 117.45-35.65L117.45-35.65Q120.65-35.65 123.45-34.3 126.25-32.95 128-30.4 129.75-27.85 129.75-24.2L129.75-24.2 129.75 0 119.5 0 119.5-24.45Q119.5-25.05 119.2-25.48 118.9-25.9 118.45-26.15 118-26.4 117.45-26.4L117.45-26.4Q116.9-26.4 116.4-26.15 115.9-25.9 115.62-25.48 115.35-25.05 115.35-24.45L115.35-24.45 115.35-10.75Q115.35-7.05 113.57-4.5 111.8-1.95 109-0.65 106.2 0.65 103 0.65ZM155.14 0L133.39 0 133.39-8.45 138.84-8.45 138.84-26.55 133.39-26.55 133.39-35 155.14-35 155.14-26.55 149.64-26.55 149.64-8.45 155.14-8.45 155.14 0ZM173.74 0L158.89 0 158.89-35 173.74-35Q179.24-35 183.29-32.75 187.34-30.5 189.57-26.55 191.79-22.6 191.79-17.5L191.79-17.5Q191.79-12.4 189.57-8.45 187.34-4.5 183.29-2.25 179.24 0 173.74 0L173.74 0ZM169.69-26.55L169.69-8.45 173.14-8.45Q175.39-8.45 177.14-9.53 178.89-10.6 179.89-12.65 180.89-14.7 180.89-17.5L180.89-17.5Q180.89-20.3 179.89-22.33 178.89-24.35 177.14-25.45 175.39-26.55 173.14-26.55L173.14-26.55 169.69-26.55ZM219.59 0L214.29 0Q209.59 0 205.89-1.28 202.19-2.55 199.64-4.88 197.09-7.2 195.74-10.4 194.39-13.6 194.39-17.5L194.39-17.5Q194.39-21.4 195.74-24.6 197.09-27.8 199.66-30.13 202.24-32.45 205.91-33.73 209.59-35 214.29-35L214.29-35 219.59-35 219.59-26.55 214.64-26.55Q212.34-26.55 210.59-25.85 208.84-25.15 207.69-23.93 206.54-22.7 205.96-21.05 205.39-19.4 205.39-17.5L205.39-17.5Q205.39-15.6 205.96-13.95 206.54-12.3 207.69-11.08 208.84-9.85 210.59-9.15 212.34-8.45 214.64-8.45L214.64-8.45 219.59-8.45 219.59 0ZM240.94 0.65L240.94 0.65Q236.79 0.65 233.31-0.7 229.84-2.05 227.31-4.53 224.79-7 223.39-10.3 221.99-13.6 221.99-17.5L221.99-17.5Q221.99-21.4 223.39-24.73 224.79-28.05 227.31-30.5 229.84-32.95 233.31-34.3 236.79-35.65 240.94-35.65L240.94-35.65Q245.09-35.65 248.56-34.3 252.04-32.95 254.56-30.5 257.09-28.05 258.49-24.73 259.89-21.4 259.89-17.5L259.89-17.5Q259.89-13.6 258.49-10.3 257.09-7 254.56-4.53 252.04-2.05 248.56-0.7 245.09 0.65 240.94 0.65ZM240.94-8.05L240.94-8.05Q242.79-8.05 244.29-8.78 245.79-9.5 246.84-10.8 247.89-12.1 248.44-13.83 248.99-15.55 248.99-17.5L248.99-17.5Q248.99-19.45 248.44-21.18 247.89-22.9 246.84-24.2 245.79-25.5 244.29-26.23 242.79-26.95 240.94-26.95L240.94-26.95Q239.09-26.95 237.59-26.23 236.09-25.5 235.04-24.2 233.99-22.9 233.44-21.18 232.89-19.45 232.89-17.5L232.89-17.5Q232.89-15.55 233.44-13.83 233.99-12.1 235.04-10.8 236.09-9.5 237.59-8.78 239.09-8.05 240.94-8.05ZM278.23 0L263.38 0 263.38-35 278.23-35Q283.73-35 287.78-32.75 291.83-30.5 294.06-26.55 296.28-22.6 296.28-17.5L296.28-17.5Q296.28-12.4 294.06-8.45 291.83-4.5 287.78-2.25 283.73 0 278.23 0L278.23 0ZM274.18-26.55L274.18-8.45 277.63-8.45Q279.88-8.45 281.63-9.53 283.38-10.6 284.38-12.65 285.38-14.7 285.38-17.5L285.38-17.5Q285.38-20.3 284.38-22.33 283.38-24.35 281.63-25.45 279.88-26.55 277.63-26.55L277.63-26.55 274.18-26.55ZM320.93 0L299.18 0 299.18-8.45 304.63-8.45 304.63-26.55 299.18-26.55 299.18-35 320.93-35 320.93-26.55 315.43-26.55 315.43-8.45 320.93-8.45 320.93 0ZM351.33 0.65L351.33 0.65Q348.13 0.65 345.3-0.68 342.48-2 340.73-4.55 338.98-7.1 338.98-10.75L338.98-10.75 338.98-24.3Q338.98-24.95 338.7-25.43 338.43-25.9 337.98-26.15 337.53-26.4 336.93-26.4L336.93-26.4Q336.33-26.4 335.85-26.15 335.38-25.9 335.1-25.43 334.83-24.95 334.83-24.3L334.83-24.3 334.83 0 324.53 0 324.53-24.2Q324.53-27.85 326.25-30.4 327.98-32.95 330.83-34.3 333.68-35.65 336.93-35.65L336.93-35.65Q340.18-35.65 342.98-34.3 345.78-32.95 347.53-30.4 349.28-27.85 349.28-24.2L349.28-24.2 349.28-10.65Q349.28-10 349.58-9.5 349.88-9 350.33-8.75 350.78-8.5 351.28-8.5L351.28-8.5Q351.83-8.5 352.33-8.75 352.83-9 353.13-9.5 353.43-10 353.43-10.65L353.43-10.65 353.43-35 363.68-35 363.68-10.75Q363.68-7.1 361.93-4.55 360.18-2 357.35-0.68 354.53 0.65 351.33 0.65ZM393.73 10.85L393.73 10.85Q390.33 10.85 387.85 9.63 385.38 8.4 384.05 6.3 382.73 4.2 382.73 1.5L382.73 1.5Q382.73 1.15 382.73 0.78 382.73 0.4 382.78-0.05L382.78-0.05Q379.43-0.3 376.58-1.7 373.73-3.1 371.6-5.45 369.48-7.8 368.3-10.95 367.13-14.1 367.13-17.75L367.13-17.75Q367.13-21.45 368.45-24.7 369.78-27.95 372.25-30.4 374.73-32.85 378.15-34.25 381.58-35.65 385.78-35.65L385.78-35.65Q389.98-35.65 393.4-34.35 396.83-33.05 399.33-30.65 401.83-28.25 403.18-24.95 404.53-21.65 404.53-17.65L404.53-17.65 404.53 0.3Q404.53 3.05 403.33 5.48 402.13 7.9 399.73 9.38 397.33 10.85 393.73 10.85ZM393.33 2.2L393.33 2.2Q394.08 2.2 394.6 1.58 395.13 0.95 395.13-0.1L395.13-0.1 395.13-7.05Q394.13-6.25 393.45-5.33 392.78-4.4 392.38-3.5 391.98-2.6 391.8-1.73 391.63-0.85 391.63-0.1L391.63-0.1Q391.63 0.65 391.88 1.15 392.13 1.65 392.5 1.93 392.88 2.2 393.33 2.2ZM384.88-8.75L384.88-8.75Q385.08-8.75 385.25-8.78 385.43-8.8 385.58-8.85L385.58-8.85Q386.58-10.25 387.88-11.65 389.18-13.05 390.68-14.28 392.18-15.5 393.73-16.45L393.73-16.45 393.73-18.35Q393.73-20.2 393.15-21.78 392.58-23.35 391.53-24.5 390.48-25.65 389.03-26.3 387.58-26.95 385.88-26.95L385.88-26.95Q384.18-26.95 382.75-26.28 381.33-25.6 380.28-24.35 379.23-23.1 378.63-21.43 378.03-19.75 378.03-17.8L378.03-17.8Q378.03-15.9 378.5-14.33 378.98-12.75 379.88-11.58 380.78-10.4 382.05-9.7 383.33-9 384.88-8.75Z" opacity="1" transform="matrix(1,0,0,1,0,0)" fill="#444444" class="undefined-text-0" data-fill-palette-color="quaternary" id="text-0"></path></svg></g></svg></g><g transform="matrix(1,0,0,1,0,30.450656276925372)"><svg viewBox="0 0 213.1584412271571 15.22439201079859" height="15.22439201079859" width="213.1584412271571"><g transform="matrix(1,0,0,1,0,0)"><svg width="213.1584412271571" viewBox="0.6500000357627869 -38.20000076293945 625.8499755859375 44.70000076293945" height="15.22439201079859" data-palette-color="#444444"><path d="M32.95-34.95L36.9-34.95 28.6 0 24.25 0 19.15-20.3 12.9 0 8.8 0 0.65-34.95 4.95-34.95 11.05-4.25 17.7-25.5 20.5-25.5 26.65-4.25 32.95-34.95ZM71.41-35L71.41 0 67.66 0 67.66-16.55 51.06-16.55 51.06 0 47.31 0 47.31-35 51.06-35 51.06-19.8 67.66-19.8 67.66-35 71.41-35ZM89.46-35L89.46 0 85.71 0 85.71-35 89.46-35ZM122.52-3.25L122.52 0 103.77 0 103.77-35 107.52-35 107.52-3.25 122.52-3.25ZM151.48-3.25L151.48 0 132.63 0 132.63-35 151.48-35 151.48-31.75 136.38-31.75 136.38-20.65 150.23-20.65 150.23-17.3 136.38-17.3 136.38-3.25 151.48-3.25ZM173.64 5.9L170.19 6.5Q164.29-3.8 164.29-15.83 164.29-27.85 170.44-38.2L170.44-38.2 173.74-37.55Q168.04-27 168.04-15.83 168.04-4.65 173.64 5.9L173.64 5.9ZM188.24-35.05L188.24-9.5 184.49-9.5 184.49-35.05 188.24-35.05ZM188.19-4.65L188.19 0 184.44 0 184.44-4.65 188.19-4.65ZM211.45 5.9L208 6.5Q202.1-3.8 202.1-15.83 202.1-27.85 208.25-38.2L208.25-38.2 211.55-37.55Q205.85-27 205.85-15.83 205.85-4.65 211.45 5.9L211.45 5.9ZM239.66-33.75L239.66-33.75 238.86-30.4 235.96-31.25Q232.86-32 230.61-32L230.61-32Q224.71-32 224.71-26.75L224.71-26.75Q224.71-24.45 226.51-22.98 228.31-21.5 230.88-20.63 233.46-19.75 236.03-18.73 238.61-17.7 240.41-15.58 242.21-13.45 242.21-10.2L242.21-10.2Q242.21-5.25 239.16-2.48 236.11 0.3 230.51 0.3L230.51 0.3Q227.71 0.3 224.88-0.53 222.06-1.35 220.26-2.45L220.26-2.45 221.51-5.3Q226.06-3.2 230.13-3.2 234.21-3.2 236.33-4.85 238.46-6.5 238.46-9.65L238.46-9.65Q238.46-12.85 235.01-14.65L235.01-14.65Q233.46-15.45 231.58-16.15 229.71-16.85 227.83-17.68 225.96-18.5 224.43-19.55 222.91-20.6 221.93-22.4 220.96-24.2 220.96-26.6L220.96-26.6Q220.96-30.9 223.53-33.2 226.11-35.5 230.46-35.5 234.81-35.5 239.66-33.75ZM275.84-3.03Q272.76 0.3 266.86 0.3 260.96 0.3 257.89-3.03 254.81-6.35 254.81-12.9L254.81-12.9 254.81-35 258.61-35 258.61-12.3Q258.61-7.85 260.74-5.4 262.86-2.95 266.79-2.95 270.71-2.95 272.91-5.38 275.11-7.8 275.11-12.3L275.11-12.3 275.11-35 278.91-35 278.91-12.9Q278.91-6.35 275.84-3.03ZM305.97 0.3L305.97 0.3Q298.82 0.3 295-4.53 291.17-9.35 291.17-17.6 291.17-25.85 295.22-30.65 299.27-35.45 306.52-35.45L306.52-35.45Q310.52-35.45 314.37-34L314.37-34 313.47-30.9Q310.42-32.2 306.27-32.2L306.27-32.2Q301.02-32.2 297.97-28.38 294.92-24.55 294.92-17.88 294.92-11.2 297.8-7.08 300.67-2.95 305.82-2.95L305.82-2.95Q309.22-2.95 314.37-4.9L314.37-4.9 315.37-2.3Q311.07 0.3 305.97 0.3ZM346.48-3.25L346.48 0 327.63 0 327.63-35 346.48-35 346.48-31.75 331.38-31.75 331.38-20.65 345.23-20.65 345.23-17.3 331.38-17.3 331.38-3.25 346.48-3.25ZM378.79-3.25L378.79 0 359.94 0 359.94-35 378.79-35 378.79-31.75 363.69-31.75 363.69-20.65 377.54-20.65 377.54-17.3 363.69-17.3 363.69-3.25 378.79-3.25ZM417.54-18.75L417.54-18.75Q417.54-10.3 412.64-5.15 407.74 0 399.54 0L399.54 0 392.24 0 392.24-35 401.09-35Q408.54-35 413.04-30.45 417.54-25.9 417.54-18.75ZM413.49-19.15L413.49-19.15Q413.49-25.05 409.89-28.4 406.29-31.75 401.29-31.75L401.29-31.75 396.29-31.75 396.29-3.25 399.99-3.25Q405.64-3.25 409.57-7.5 413.49-11.75 413.49-19.15ZM450.5-21.3L450.5-18.05 429-18.05 429-21.3 450.5-21.3ZM450.5-11.4L450.5-8.15 429-8.15 429-11.4 450.5-11.4ZM473.96 0L470.26 0 470.26-31.65 460.46-31.65 460.46-35 483.66-35 483.66-31.65 473.96-31.65 473.96 0ZM501.26-16.45L501.26-16.45 498.16-16.45 498.16-0.05 494.41-0.05 494.41-35.05 504.51-35.05Q509.61-35.05 512.19-32.73 514.76-30.4 514.76-26.1L514.76-26.1Q514.76-23.1 512.69-20.6 510.61-18.1 507.56-17.7L507.56-17.7Q510.01-17.15 511.04-16.13 512.06-15.1 513.46-11.75L513.46-11.75 518.41-0.05 514.46-0.05 509.61-11.25Q508.26-14.4 506.59-15.43 504.91-16.45 501.26-16.45ZM504.31-31.85L504.31-31.85 498.16-31.85 498.16-19.65 503.81-19.65Q506.91-19.65 508.74-21.48 510.56-23.3 510.56-26.1 510.56-28.9 508.91-30.38 507.26-31.85 504.31-31.85ZM548.12-35L552.17-35 540.67-15.75 540.67 0 536.92 0 536.92-15.75 525.87-35 530.02-35 538.87-18.8 548.12-35ZM571.28 5.9L567.83 6.5Q561.93-3.8 561.93-15.83 561.93-27.85 568.08-38.2L568.08-38.2 571.38-37.55Q565.68-27 565.68-15.83 565.68-4.65 571.28 5.9L571.28 5.9ZM578.44-37.55L581.74-38.2Q587.89-27.85 587.89-15.83 587.89-3.8 581.99 6.5L581.99 6.5 578.54 5.9Q584.14-4.65 584.14-15.83 584.14-27 578.44-37.55L578.44-37.55ZM597.74-37.55L601.04-38.2Q607.19-27.85 607.19-15.83 607.19-3.8 601.29 6.5L601.29 6.5 597.84 5.9Q603.44-4.65 603.44-15.83 603.44-27 597.74-37.55L597.74-37.55ZM617.05-37.55L620.35-38.2Q626.5-27.85 626.5-15.83 626.5-3.8 620.6 6.5L620.6 6.5 617.15 5.9Q622.75-4.65 622.75-15.83 622.75-27 617.05-37.55L617.05-37.55Z" opacity="1" transform="matrix(1,0,0,1,0,0)" fill="#444444" class="undefined-text-1" data-fill-palette-color="quaternary" id="text-1"></path></svg></g></svg></g></svg></g></svg></g><g transform="matrix(1,0,0,1,67.18390733870461,0)"><svg viewBox="0 0 78.7906265497479 63.12291673363452" height="63.12291673363452" width="78.7906265497479"><g><svg xmlns="http://www.w3.org/2000/svg" xmlns:xlink="http://www.w3.org/1999/xlink" version="1.1" x="0" y="0" viewBox="2.1530001163482666 12.180000305175781 95 76.10901641845703" enable-background="new 0 0 100 100" xml:space="preserve" height="63.12291673363452" width="78.7906265497479" class="icon-icon-0" data-fill-palette-color="quaternary" id="icon-0"><g fill="#444444" data-fill-palette-color="quaternary"><circle fill="none" cx="49.651" cy="72.829" r="1.8"></circle><path fill="none" d="M6.159 65.021h86.985V15.996H6.159V65.021zM56.586 46.886l11.51-4.933v-0.062l-11.51-4.932V33.67l14.891 6.825v2.854l-14.891 6.825V46.886zM51.652 28.924h3.133l-6.639 22.49h-3.132-0.001L51.652 28.924zM27.825 43.256v-2.668l14.89-6.918v3.289l-11.26 4.932v0.062l11.26 4.933v3.288L27.825 43.256 27.825 43.256z"></path><path d="M94.318 12.18h-43.88-1.495H5.063c-1.563 0-2.91 1.188-2.91 2.752v54.092 0.188 5.013 0.313c0 1.563 1.347 2.877 2.91 2.877h35.146c-0.041 0.896-0.321 4.753-2.155 6.623-1.445 1.474-3.453 2.854-2.669 3.563 0.19 0.436 1.091 0.688 3.14 0.688 4.521 0 9.416 0 11.208 0 0.453 0 0.707 0 0.707 0 1.791 0 6.688 0 11.207 0 2.334 0 3.15-0.382 3.158-0.953h-0.08v-0.188h-0.082c-0.104-0.771-1.662-1.907-2.84-3.105-1.834-1.87-2.113-5.727-2.154-6.623h34.674c1.564 0 2.83-1.313 2.83-2.877v-0.314-5.012-0.189V14.934C97.15 13.368 95.883 12.18 94.318 12.18zM49.651 74.676c-1.021 0-1.847-0.824-1.847-1.846s0.826-1.848 1.847-1.848c1.02 0 1.847 0.826 1.847 1.848C51.499 73.852 50.671 74.676 49.651 74.676zM93.145 65.021H6.159V15.996h86.985V65.021z" fill="#444444" data-fill-palette-color="quaternary"></path><polygon points="42.715,46.886 31.455,41.953 31.455,41.891 42.715,36.959 42.715,33.67 27.825,40.588 27.825,43.256    27.825,43.257 42.715,50.174  " fill="#444444" data-fill-palette-color="quaternary"></polygon><polygon points="48.146,51.414 54.785,28.924 51.652,28.924 45.013,51.414 45.014,51.414  " fill="#444444" data-fill-palette-color="quaternary"></polygon><polygon points="71.477,40.495 56.586,33.67 56.586,36.959 68.096,41.891 68.096,41.953 56.586,46.886 56.586,50.174    71.477,43.349  " fill="#444444" data-fill-palette-color="quaternary"></polygon></g></svg></g></svg></g><g></g></svg></g></svg></g></svg></g></svg></g><defs></defs></svg><rect width="342.85155851775386" height="342.85155851775386" fill="none" stroke="none" visibility="hidden"></rect></g></svg></g></svg>